<svg width="24" height="24" viewBox="0 0 24 24" fill="none" xmlns="http://www.w3.org/2000/svg">
<g clip-path="url(#paint0_angular_19539_244_clip_path)" data-figma-skip-parse="true"><g transform="matrix(0.01 0 0 0.01 12 12)"><foreignObject x="-1000" y="-1000" width="2000" height="2000"><div xmlns="http://www.w3.org/1999/xhtml" style="background:conic-gradient(from 90deg,rgba(178, 178, 178, 1) 0deg,rgba(178, 178, 178, 1) 11.1469deg,rgba(165, 165, 165, 1) 12.4437deg,rgba(165, 165, 165, 1) 77.146deg,rgba(216, 216, 216, 1) 79.2377deg,rgba(219, 219, 219, 1) 314.059deg,rgba(191, 191, 191, 1) 315.205deg,rgba(191, 191, 191, 1) 342.351deg,rgba(178, 178, 178, 1) 343.28deg,rgba(178, 178, 178, 1) 360deg);height:100%;width:100%;opacity:1"></div></foreignObject></g></g><path fill-rule="evenodd" clip-rule="evenodd" d="M11 6V3C11 2.44772 11.4477 2 12 2C12.5523 2 13 2.44772 13 3V6C13 6.55228 12.5523 7 12 7C11.4477 7 11 6.55228 11 6ZM11 21V18C11 17.4477 11.4477 17 12 17C12.5523 17 13 17.4477 13 18V21C13 21.5523 12.5523 22 12 22C11.4477 22 11 21.5523 11 21ZM15.634 3.70577C15.9101 3.22748 16.5217 3.0636 17 3.33975C17.4783 3.61589 17.6422 4.22748 17.366 4.70577L15.866 7.30385C15.5899 7.78214 14.9783 7.94602 14.5 7.66987C14.0217 7.39373 13.8578 6.78214 14.134 6.30385L15.634 3.70577ZM9.5 16.3301C9.02171 16.054 8.41012 16.2179 8.13397 16.6962L6.63397 19.2942C6.35783 19.7725 6.52171 20.3841 7 20.6603C7.47829 20.9364 8.08988 20.7725 8.36603 20.2942L9.86603 17.6962C10.1422 17.2179 9.97829 16.6063 9.5 16.3301ZM19.2942 6.63397C19.7725 6.35783 20.3841 6.52171 20.6603 7C20.9364 7.47829 20.7725 8.08988 20.2942 8.36603L17.6962 9.86603C17.2179 10.1422 16.6063 9.97829 16.3301 9.5C16.054 9.02171 16.2179 8.41012 16.6962 8.13397L19.2942 6.63397ZM7.66987 14.5C7.39373 14.0217 6.78214 13.8578 6.30385 14.134L3.70577 15.634C3.22748 15.9101 3.0636 16.5217 3.33975 17C3.61589 17.4783 4.22748 17.6422 4.70577 17.366L7.30385 15.866C7.78214 15.5899 7.94602 14.9783 7.66987 14.5ZM21 11C21.5523 11 22 11.4477 22 12C22 12.5523 21.5523 13 21 13H18C17.4477 13 17 12.5523 17 12C17 11.4477 17.4477 11 18 11H21ZM7 12C7 11.4477 6.55228 11 6 11H3C2.44772 11 2 11.4477 2 12C2 12.5523 2.44772 13 3 13H6C6.55228 13 7 12.5523 7 12ZM20.2942 15.634C20.7725 15.9101 20.9364 16.5217 20.6603 17C20.3841 17.4783 19.7725 17.6422 19.2942 17.366L16.6962 15.866C16.2179 15.5899 16.054 14.9783 16.3301 14.5C16.6063 14.0217 17.2179 13.8578 17.6962 14.134L20.2942 15.634ZM7.66987 9.5C7.94602 9.02171 7.78214 8.41012 7.30385 8.13397L4.70577 6.63397C4.22748 6.35783 3.61589 6.52171 3.33975 7C3.0636 7.47829 3.22748 8.08988 3.70577 8.36603L6.30385 9.86603C6.78214 10.1422 7.39373 9.97829 7.66987 9.5ZM17.366 19.2942C17.6422 19.7725 17.4783 20.3841 17 20.6603C16.5217 20.9364 15.9101 20.7725 15.634 20.2942L14.134 17.6962C13.8578 17.2179 14.0217 16.6063 14.5 16.3301C14.9783 16.054 15.5899 16.2179 15.866 16.6962L17.366 19.2942ZM9.5 7.66987C9.97829 7.39373 10.1422 6.78214 9.86603 6.30385L8.36603 3.70577C8.08988 3.22748 7.47829 3.0636 7 3.33975C6.52171 3.61589 6.35783 4.22748 6.63397 4.70577L8.13397 7.30385C8.41012 7.78214 9.02171 7.94602 9.5 7.66987Z" data-figma-gradient-fill="{&#34;type&#34;:&#34;GRADIENT_ANGULAR&#34;,&#34;stops&#34;:[{&#34;color&#34;:{&#34;r&#34;:0.69999998807907104,&#34;g&#34;:0.69999998807907104,&#34;b&#34;:0.69999998807907104,&#34;a&#34;:1.0},&#34;position&#34;:0.030963476747274399},{&#34;color&#34;:{&#34;r&#34;:0.64999997615814209,&#34;g&#34;:0.64999997615814209,&#34;b&#34;:0.64999997615814209,&#34;a&#34;:1.0},&#34;position&#34;:0.034565895795822144},{&#34;color&#34;:{&#34;r&#34;:0.64999997615814209,&#34;g&#34;:0.64999997615814209,&#34;b&#34;:0.64999997615814209,&#34;a&#34;:1.0},&#34;position&#34;:0.21429452300071716},{&#34;color&#34;:{&#34;r&#34;:0.85000002384185791,&#34;g&#34;:0.85000002384185791,&#34;b&#34;:0.85000002384185791,&#34;a&#34;:1.0},&#34;position&#34;:0.22010464966297150},{&#34;color&#34;:{&#34;r&#34;:0.86000001430511475,&#34;g&#34;:0.86000001430511475,&#34;b&#34;:0.86000001430511475,&#34;a&#34;:1.0},&#34;position&#34;:0.87238615751266479},{&#34;color&#34;:{&#34;r&#34;:0.750,&#34;g&#34;:0.750,&#34;b&#34;:0.750,&#34;a&#34;:1.0},&#34;position&#34;:0.87556952238082886},{&#34;color&#34;:{&#34;r&#34;:0.750,&#34;g&#34;:0.750,&#34;b&#34;:0.750,&#34;a&#34;:1.0},&#34;position&#34;:0.95097607374191284},{&#34;color&#34;:{&#34;r&#34;:0.69999998807907104,&#34;g&#34;:0.69999998807907104,&#34;b&#34;:0.69999998807907104,&#34;a&#34;:1.0},&#34;position&#34;:0.95355635881423950}],&#34;stopsVar&#34;:[],&#34;transform&#34;:{&#34;m00&#34;:20.0,&#34;m01&#34;:0.0,&#34;m02&#34;:2.0,&#34;m10&#34;:0.0,&#34;m11&#34;:20.0,&#34;m12&#34;:2.0},&#34;opacity&#34;:1.0,&#34;blendMode&#34;:&#34;NORMAL&#34;,&#34;visible&#34;:true}"/>
<defs>
<clipPath id="paint0_angular_19539_244_clip_path"><path fill-rule="evenodd" clip-rule="evenodd" d="M11 6V3C11 2.44772 11.4477 2 12 2C12.5523 2 13 2.44772 13 3V6C13 6.55228 12.5523 7 12 7C11.4477 7 11 6.55228 11 6ZM11 21V18C11 17.4477 11.4477 17 12 17C12.5523 17 13 17.4477 13 18V21C13 21.5523 12.5523 22 12 22C11.4477 22 11 21.5523 11 21ZM15.634 3.70577C15.9101 3.22748 16.5217 3.0636 17 3.33975C17.4783 3.61589 17.6422 4.22748 17.366 4.70577L15.866 7.30385C15.5899 7.78214 14.9783 7.94602 14.5 7.66987C14.0217 7.39373 13.8578 6.78214 14.134 6.30385L15.634 3.70577ZM9.5 16.3301C9.02171 16.054 8.41012 16.2179 8.13397 16.6962L6.63397 19.2942C6.35783 19.7725 6.52171 20.3841 7 20.6603C7.47829 20.9364 8.08988 20.7725 8.36603 20.2942L9.86603 17.6962C10.1422 17.2179 9.97829 16.6063 9.5 16.3301ZM19.2942 6.63397C19.7725 6.35783 20.3841 6.52171 20.6603 7C20.9364 7.47829 20.7725 8.08988 20.2942 8.36603L17.6962 9.86603C17.2179 10.1422 16.6063 9.97829 16.3301 9.5C16.054 9.02171 16.2179 8.41012 16.6962 8.13397L19.2942 6.63397ZM7.66987 14.5C7.39373 14.0217 6.78214 13.8578 6.30385 14.134L3.70577 15.634C3.22748 15.9101 3.0636 16.5217 3.33975 17C3.61589 17.4783 4.22748 17.6422 4.70577 17.366L7.30385 15.866C7.78214 15.5899 7.94602 14.9783 7.66987 14.5ZM21 11C21.5523 11 22 11.4477 22 12C22 12.5523 21.5523 13 21 13H18C17.4477 13 17 12.5523 17 12C17 11.4477 17.4477 11 18 11H21ZM7 12C7 11.4477 6.55228 11 6 11H3C2.44772 11 2 11.4477 2 12C2 12.5523 2.44772 13 3 13H6C6.55228 13 7 12.5523 7 12ZM20.2942 15.634C20.7725 15.9101 20.9364 16.5217 20.6603 17C20.3841 17.4783 19.7725 17.6422 19.2942 17.366L16.6962 15.866C16.2179 15.5899 16.054 14.9783 16.3301 14.5C16.6063 14.0217 17.2179 13.8578 17.6962 14.134L20.2942 15.634ZM7.66987 9.5C7.94602 9.02171 7.78214 8.41012 7.30385 8.13397L4.70577 6.63397C4.22748 6.35783 3.61589 6.52171 3.33975 7C3.0636 7.47829 3.22748 8.08988 3.70577 8.36603L6.30385 9.86603C6.78214 10.1422 7.39373 9.97829 7.66987 9.5ZM17.366 19.2942C17.6422 19.7725 17.4783 20.3841 17 20.6603C16.5217 20.9364 15.9101 20.7725 15.634 20.2942L14.134 17.6962C13.8578 17.2179 14.0217 16.6063 14.5 16.3301C14.9783 16.054 15.5899 16.2179 15.866 16.6962L17.366 19.2942ZM9.5 7.66987C9.97829 7.39373 10.1422 6.78214 9.86603 6.30385L8.36603 3.70577C8.08988 3.22748 7.47829 3.0636 7 3.33975C6.52171 3.61589 6.35783 4.22748 6.63397 4.70577L8.13397 7.30385C8.41012 7.78214 9.02171 7.94602 9.5 7.66987Z"/></clipPath></defs>
</svg>
